<?xml version="1.0" encoding="utf-8"?>
<!-- Generator: Adobe Illustrator 25.0.0, SVG Export Plug-In . SVG Version: 6.00 Build 0)  -->
<svg version="1.1" id="Layer_1" xmlns="http://www.w3.org/2000/svg" xmlns:xlink="http://www.w3.org/1999/xlink" x="0px" y="0px"
	 viewBox="0 0 299.8 166.1" style="enable-background:new 0 0 299.8 166.1;" xml:space="preserve">
<style type="text/css">
	.st0{fill:#FFCE04;}
	.st1{fill:#FFFFFF;}
	.st2{clip-path:url(#SVGID_2_);}
</style>
<g>
	<g>
		<defs>
			<path id="SVGID_1_" d="M292.1,166.1H7.8c-4.3,0-7.8-3.5-7.8-7.8V7.8C0,3.5,3.5,0,7.8,0h284.3c4.3,0,7.8,3.5,7.8,7.8v150.6
				C299.8,162.6,296.3,166.1,292.1,166.1z"/>
		</defs>
		<clipPath id="SVGID_2_">
			<use xlink:href="#SVGID_1_"  style="overflow:visible;"/>
		</clipPath>
		<g class="st2">
			<path class="st0" d="M80.1-60.2c-20.3-10.7-46.4-10.9-67.8-3.4C-8.7-56.1-21.5-39-24.4-17.1c-3.2,25,6.6,50.9,26.4,66.6
				c20.4,16.2,48.5,18.6,72,8.3c23.7-10.4,38.5-34.7,40.1-60.1C115-26.9,101.9-48.7,80.1-60.2z M60.8,53.7
				C34.9,60.9,7.3,49.5-6.9,27C-19.5,7-21.2-24.3-4.8-42.8C9.8-59.2,36.9-62.6,57.3-59c28.2,4.9,49.4,27.7,48.3,56.8
				C104,24.1,86.3,46.6,60.8,53.7z"/>
			<path class="st0" d="M38.7-44.4c-24.1,8-40.5,33.6-34.1,56.3C11,34.6,35.4,49.3,58,40.5c14.1-5.5,27.6-15.8,31.9-29
				c2.5-7.7,0.2-17.7-2.2-26C81.3-37.3,61.3-51.9,38.7-44.4z"/>
		</g>
	</g>
</g>
</svg>
