<?xml version="1.0" encoding="utf-8"?>
<!-- Generator: Adobe Illustrator 25.0.0, SVG Export Plug-In . SVG Version: 6.00 Build 0)  -->
<svg version="1.1" id="Layer_1" focusable="false" xmlns="http://www.w3.org/2000/svg" xmlns:xlink="http://www.w3.org/1999/xlink"
	 x="0px" y="0px" viewBox="0 0 512 512" style="enable-background:new 0 0 512 512;" xml:space="preserve">
<style type="text/css">
	.st0{fill:#FFCC00;}
	.st1{fill:#FFCC04;}
</style>
<path class="st0" d="M214.7,348.2L131,264.6c-5-5-5-13.2,0-18.2l18.2-18.2c5-5,13.2-5,18.2,0l56.4,56.4l120.7-120.7
	c5-5,13.2-5,18.2,0L381,182c5,5,5,13.2,0,18.2l-148,148C227.9,353.3,219.7,353.3,214.7,348.2L214.7,348.2z"/>
<path class="st1" d="M383.1,50.7c-72.2-38.2-164.8-38.8-241-12C67.2,65,21.7,126,11.6,204c-11.5,88.9,23.5,180.9,93.8,236.8
	c72.5,57.7,172.3,66.3,256,29.5c84.3-37,136.8-123.3,142.4-213.5C507.2,168.9,460.6,91.7,383.1,50.7z M314.3,455.4
	c-92,25.7-190.2-14.8-240.5-94.7C29,289.5,23,178.1,81.4,112.5c51.8-58.2,147.9-70.4,220.7-57.8c100.4,17.4,175.5,98.4,171.6,202
	C467.9,350.4,404.9,430.1,314.3,455.4z"/>
</svg>
