<?xml version="1.0" encoding="utf-8"?>
<!-- Generator: Adobe Illustrator 25.0.0, SVG Export Plug-In . SVG Version: 6.00 Build 0)  -->
<svg version="1.1" id="Layer_1" xmlns="http://www.w3.org/2000/svg" xmlns:xlink="http://www.w3.org/1999/xlink" x="0px" y="0px"
	 viewBox="0 0 53.9 62" style="enable-background:new 0 0 53.9 62;" xml:space="preserve">
<path d="M2.5,8.1l23.7,10.4l-2.1,3.9c-2.3,4.3-2.9,9.2-1.6,13.8l1.4,4.9c0.1,0.2,0,0.5-0.1,0.7l-7.1,13.7c-0.3,0.7-0.5,1.4-0.5,2.1
	c0,2.5,2,4.5,4.5,4.5c1.7,0,3.2-0.9,4-2.4l6.8-13.2c0.8-1.5,1.1-3.3,1-5.1l-0.2-2.1L39,45l5.9,14.1c0.4,0.8,1,1.6,1.7,2.1
	c0.8,0.5,1.7,0.8,2.6,0.8c1.6,0,3.1-0.8,3.9-2.1c0.9-1.3,1-3,0.3-4.5l-5.5-12.1c-0.5-1.2-1.2-2.2-2.1-3.1l-7.5-7.7l3.9-8.9
	c0,0,0,0,0.1,0c0,0,0.1,0,0.1,0l1.8-0.3c2.3-0.3,4.1-2.1,4.5-4.3c0.5-2.5-0.8-5-3.2-6l-1.9-0.8c0.2-0.7,0.4-1.5,0.4-2.3
	c0-4.2-3.4-7.6-7.6-7.6c-2.8,0-5.3,1.5-6.6,3.9l-4.3-1.8c-1.2-0.5-2.6-0.5-3.8,0.2C20.9,5,20.3,5.7,20,6.5L5.9,0.3
	c-1.3-0.6-2.8-0.4-4,0.3C0.7,1.5,0,2.8,0,4.2C0,5.9,1,7.4,2.5,8.1z M36.3,4.3c3.1,0,5.6,2.5,5.6,5.6c0,0.5-0.1,1-0.2,1.5L31.5,7
	C32.6,5.3,34.3,4.3,36.3,4.3z M22.7,6.3c0.6-0.4,1.3-0.4,2-0.1l5.1,2.2c0,0,0,0,0,0c0,0,0,0,0,0l15,6.5c1.5,0.6,2.3,2.2,2,3.8
	c-0.3,1.4-1.4,2.5-2.9,2.7l-0.8,0.1l0.5-1.1c0-0.1,0-0.1,0-0.2c0.1-0.5-0.2-0.9-0.6-1.1L33.8,15l0,0c0,0,0,0,0,0c0,0,0,0-0.1,0
	l-10.9-4.8c-0.8-0.3-1.3-1.1-1.3-2c0-0.1,0-0.2,0-0.2C21.6,7.2,22,6.6,22.7,6.3z M3,2.4c0.6-0.4,1.4-0.5,2.1-0.2l14.5,6.3
	c0.1,1.6,1.1,2.9,2.5,3.6l10.8,4.7c0,0,0.1,0,0.1,0l0,0c0.2,0.1,0.4,0.2,0.6,0.3l7.8,3.4l-5.1,11.9c-0.2,0.4-0.1,0.8,0.2,1.1
	l7.9,8.1c0.7,0.7,1.3,1.6,1.7,2.5l5.5,12.1c0.4,0.8,0.3,1.8-0.2,2.5c-0.5,0.8-1.3,1.2-2.2,1.2c-0.5,0-1-0.2-1.5-0.5
	c-0.4-0.3-0.8-0.7-1-1.2l-5.9-14.1c-0.1-0.3-0.3-0.5-0.5-0.7L31.6,36c-0.3-0.3-0.8-0.3-1.1-0.1c-0.4,0.2-0.6,0.6-0.5,1l0.5,4.6
	c0.1,1.4-0.1,2.7-0.7,3.9l-6.8,13.2c-0.4,0.8-1.3,1.3-2.2,1.3c-1.5,0-2.5-1.3-2.5-2.5c0-0.4,0.1-0.8,0.3-1.1l7.1-13.7
	c0.4-0.7,0.4-1.5,0.2-2.2l-1.4-5c-1.1-4-0.6-8.3,1.5-12.2l2.6-4.8c0.3-0.5,0-1.2-0.5-1.4L3.3,6.2C2.5,5.9,2,5.1,2,4.2
	C2,3.5,2.4,2.8,3,2.4z"/>
</svg>
