<?xml version="1.0" encoding="utf-8"?>
<!-- Generator: Adobe Illustrator 24.3.0, SVG Export Plug-In . SVG Version: 6.00 Build 0)  -->
<svg version="1.1" id="Layer_1" xmlns="http://www.w3.org/2000/svg" xmlns:xlink="http://www.w3.org/1999/xlink" x="0px" y="0px"
	 viewBox="0 0 142.5 34" style="enable-background:new 0 0 142.5 34;" xml:space="preserve">
<style type="text/css">
	.st0{fill:#FFCE04;}
	.st1{fill:#FFFFFF;}
</style>
<g>
	<g>
		<path class="st0" d="M133.9,2.2c-5.2-2.8-11.9-2.8-17.3-0.9c-5.2,1.8-8.9,6.4-9.4,11.9c-0.8,6.5,1.7,12.9,6.7,17
			c5.3,4.1,12.4,4.9,18.4,2.1c6.1-2.7,9.8-8.9,10.2-15.4C142.9,10.8,139.5,5,133.9,2.2z M129,31.3c-6.6,1.8-13.7-1-17.3-6.8
			c-3.2-5.1-3.6-13.1,0.5-17.9c3.8-4.2,10.7-5.1,15.9-4.2c7.2,1.3,12.6,7.1,12.4,14.5C140.1,23.8,135.5,29.5,129,31.3L129,31.3z"/>
		<path class="st0" d="M123.4,6.2c-6.2,2-10.4,8.6-8.7,14.4s7.9,9.5,13.7,7.3c3.6-1.4,7.1-4,8.1-7.4c0.6-2,0-4.5-0.6-6.7
			C134.3,8.1,129.2,4.3,123.4,6.2z"/>
	</g>
	<path class="st1" d="M28.7,7.6H27v22.9h4.5V9.8C31.5,9.8,31.6,7.6,28.7,7.6z"/>
	<path class="st1" d="M35.3,19.1L35.3,19.1c0,6.7,5.5,12.1,12.2,12.1c3.8,0,7.3-1.8,9.6-4.7c-0.5-1-1.5-1.8-2.6-2.1
		c-1-0.1-1.9,0.2-2.7,0.8c-1.3,0.9-2.8,1.4-4.3,1.4c-4.1,0-7.5-3.3-7.5-7.4c0.1-4.1,3.4-7.4,7.5-7.4c1.6,0,3.1,0.5,4.3,1.4
		c0.7,0.6,1.7,0.9,2.7,0.8c1.4-0.2,2.4-1.8,2.6-2.1c-2-2.6-5.1-4.3-8.4-4.6h-2.4C40,7.8,35.3,12.9,35.3,19.1z"/>
	<path class="st1" d="M46.2,7.2h2.3c-0.4,0-0.8-0.1-1.2-0.1C47,7.1,46.6,7.1,46.2,7.2z"/>
	<path class="st1" d="M62.1,7.6c-2.7,0-2.5,2.8-2.5,2.8V12h7.5v18.5h4.4V12.1h4.9c1.4,0.2,2.6-0.8,2.8-2.1c0-0.2,0-0.3,0-0.5V7.6
		H62.1z"/>
	<path class="st1" d="M84.8,15c0-3.4,4.4-2.9,5.2-2.9h5c0.4,0,3.2,0.2,3.2-2.5v-2h-7.8c-7.9,0-9.6,3.5-10,5.8
		c-0.7,4.4,1.7,5.9,1.7,5.9l0,0c4,3.3,11.5,1,11.5,4.8c0,2.9-4.4,2.2-5.1,2.2h-5c-0.4,0-3.2-0.4-3.2,2.4v1.7h7.8
		c3.2,0,6.4-0.2,8-1.4c2.6-2,2.8-6.2,0.5-9.1C93.1,15.3,84.8,18.4,84.8,15z"/>
	<path class="st1" d="M20.5,7.7c-2.1,0-3,1.9-3.5,3.2s-1.1,2.8-1.8,4.8c-1.6,4-3.3,8.5-3.6,9.5l0,0l0,0l0,0c-0.3-0.9-2-5.4-3.6-9.5
		c-0.7-1.9-1.3-3.2-1.8-4.6S4.8,7.7,2.6,7.7H0l8.1,20.5c0.8,1.9,2,2.8,3.4,2.8h0.1c1.6-0.1,3-1.2,3.4-2.8l8.1-20.5
		C23.1,7.7,20.5,7.7,20.5,7.7z"/>
</g>
</svg>
