<svg xmlns="http://www.w3.org/2000/svg" viewBox="0 0 35.58 33.97"><defs><style>.cls-1{fill:#ffce04;}</style></defs><g id="Layer_2" data-name="Layer 2"><g id="Layer_1-2" data-name="Layer 1"><path class="cls-1" d="M26.88,2.2C21.69-.55,15-.59,9.55,1.34A13.92,13.92,0,0,0,.16,13.22a18.81,18.81,0,0,0,6.74,17,18,18,0,0,0,18.42,2.12c6.07-2.66,9.84-8.87,10.24-15.35A15.9,15.9,0,0,0,26.88,2.2ZM21.93,31.31A15.63,15.63,0,0,1,4.63,24.5C1.41,19.38,1,11.36,5.17,6.65,8.9,2.46,15.82,1.58,21.05,2.49,28.27,3.75,33.68,9.57,33.39,17A15.73,15.73,0,0,1,21.93,31.31Z"/><path class="cls-1" d="M16.29,6.24c-6.16,2-10.36,8.58-8.72,14.39s7.88,9.55,13.66,7.31c3.59-1.4,7.06-4,8.15-7.42.64-2,0-4.53-.56-6.66C27.18,8.05,22.08,4.32,16.29,6.24Z"/></g></g></svg>