<?xml version="1.0" encoding="utf-8"?>
<!-- Generator: Adobe Illustrator 21.1.0, SVG Export Plug-In . SVG Version: 6.00 Build 0)  -->
<svg version="1.1" id="Layer_1" xmlns="http://www.w3.org/2000/svg" xmlns:xlink="http://www.w3.org/1999/xlink" x="0px" y="0px"
	 viewBox="0 0 31 31" style="enable-background:new 0 0 31 31;" xml:space="preserve">
<style type="text/css">
	.st0{fill:none;stroke:#211e35;stroke-width:1.6;stroke-miterlimit:10;}
</style>
<desc>Created with Sketch.</desc>
<g>
	<path class="st0" d="M10.5,8c0.1,0,0.2-0.1,0.3-0.1c1.5-0.7,2.2-2.6,1.5-4.1S9.8,1.6,8.2,2.3C6.7,3,6.1,4.9,6.8,6.4
		C7.4,7.8,9.1,8.5,10.5,8z"/>
	<path class="st0" d="M12,14.8l-5.1,1.3c-0.4-0.1-0.7-0.4-0.8-0.7C6,15,6,14.6,6.1,14.2l1.3-3.6v-0.1C7.5,10.4,7.7,10.2,8,10
		l5.5,0.8l3.9-4.7c0.3-0.3,0.8-0.7,1.2-0.4l0,0C19.2,5.9,19.4,6.5,19,7l-3.4,4"/>
	<path class="st0" d="M12.2,18.2v10c0,1,0.8,1.3,1.3,1.3s1.3-0.3,1.3-1.3v-9.3l4.9-3.3l5.9,0.8c0.7,0,1.4-0.4,1.5-1.1
		c0.1-0.8-0.7-1.3-1.4-1.4l-7-1.2L17,14.1"/>
</g>
</svg>
