<?xml version="1.0" encoding="utf-8"?>
<!-- Generator: Adobe Illustrator 25.0.0, SVG Export Plug-In . SVG Version: 6.00 Build 0)  -->
<svg version="1.1" id="Layer_1" xmlns="http://www.w3.org/2000/svg" xmlns:xlink="http://www.w3.org/1999/xlink" x="0px" y="0px"
	 viewBox="0 0 83.6 92.4" style="enable-background:new 0 0 83.6 92.4;" xml:space="preserve">
<path d="M83.1,83.4c-5.4-13.7-13.8-26.2-24.5-36.2c0,0,0,0,0,0c0,0,0,0,0,0c-6.3-5.8-14.3-9.7-22.8-10.9C37,26,37.2,15.7,36.3,5.4
	c0-0.1,0-0.2-0.1-0.4C35.8,2,33-0.2,29.9,0c-3.1,0.3-5.4,3-5.4,6.1c0,0.1,0,0.2,0,0.3c0,0,0,0,0,0l0,0v0c0.9,10.4,0.7,20.9-0.8,31.2
	L23,41.8c-0.6-5.8-5.5-10.3-11.5-10.3c-3.1,0-6,1.2-8.2,3.4C1.2,37.1,0,40,0,43.1c0,6.4,5.2,11.6,11.6,11.6c4.7,0,8.7-2.8,10.5-6.8
	l-0.9,5.3l0,0c-1.8,10.3-4.9,20.4-9,29.9c0,0,0,0,0,0c-0.6,1.4-0.7,3.1-0.1,4.5c0.6,1.5,1.7,2.6,3.2,3.3c0.7,0.3,1.4,0.4,2.1,0.5
	c1,0.6,2.2,1,3.4,1c1.2,0,2.4-0.3,3.5-1c0,0,0,0,0,0c12-7.5,22.3-17.7,30.2-29.5c7,7.7,12.4,16.5,16.3,26.3c0,0,0,0,0,0l0,0l0,0l0,0
	c0.6,1.6,1.9,2.9,3.5,3.7c0.9,0.4,1.8,0.6,2.7,0.6c0.8,0,1.6-0.2,2.4-0.5c1.6-0.6,2.9-1.9,3.7-3.5S83.7,85,83.1,83.4z M11.6,51.1
	c-4.4,0-8-3.6-8-8c0-2.1,0.8-4.1,2.3-5.6c1.5-1.5,3.5-2.3,5.6-2.3c4.4,0,8,3.6,8,8S15.9,51.1,11.6,51.1z M79.7,87
	c-0.3,0.7-0.9,1.3-1.7,1.6c-0.8,0.3-1.6,0.3-2.3,0s-1.3-0.9-1.6-1.7v0l0,0C69.8,76,63.6,66.2,55.6,57.8c0,0,0,0,0,0
	c-0.1-0.1-0.2-0.2-0.3-0.3c-0.1,0-0.1-0.1-0.2-0.1c0,0,0,0-0.1,0c-0.2-0.1-0.4-0.1-0.6-0.1c0,0-0.1,0-0.1,0c-0.2,0-0.4,0-0.6,0.1
	c0,0-0.1,0-0.1,0c-0.2,0.1-0.4,0.2-0.5,0.3c0,0,0,0,0,0c0,0,0,0,0,0c-0.1,0.1-0.2,0.2-0.3,0.3C45.2,70,34.9,80.3,23,88
	c0,0,0,0,0-0.1c0,0,0,0,0,0l0,0c0,0,0,0,0,0v0c1.4-3.3,2.8-6.7,3.9-10.2c6-4.7,11.4-10.2,16-16.2c0,0,0,0,0-0.1c0,0,0,0,0,0
	c0,0,0-0.1,0.1-0.1c0-0.1,0.1-0.1,0.1-0.2c0-0.1,0-0.1,0.1-0.2c0-0.1,0-0.1,0.1-0.2c0-0.1,0-0.1,0-0.2c0-0.1,0-0.1,0-0.2
	c0-0.1,0-0.1,0-0.2c0-0.1,0-0.1,0-0.2c0-0.1,0-0.1,0-0.2c0-0.1,0-0.1,0-0.2s0-0.1-0.1-0.2c0-0.1-0.1-0.1-0.1-0.2
	c0,0-0.1-0.1-0.1-0.1c0,0-0.1-0.1-0.1-0.1c0,0-0.1-0.1-0.1-0.1c0,0-0.1-0.1-0.1-0.1c0,0,0,0-0.1,0c0,0,0,0,0,0
	c-3.5-2.3-7.6-3.6-11.7-3.8c0,0,0,0,0,0c-0.1,0-0.1,0-0.2,0c0,0-0.1,0-0.1,0c-0.1,0-0.2,0-0.3,0.1c0,0,0,0-0.1,0
	c-0.3,0.1-0.6,0.3-0.8,0.6c0,0,0,0,0,0c-0.1,0.1-0.1,0.2-0.2,0.2c0,0,0,0,0,0.1c0,0.1-0.1,0.1-0.1,0.2c0,0,0,0.1,0,0.1
	c0,0,0,0,0,0.1c-2,10.3-5.1,20.3-9.2,29.9l0,0v0c-0.2,0.6-0.7,1-1.3,1.2c-0.6,0.2-1.2,0.2-1.8,0s-1-0.7-1.2-1.3
	c-0.2-0.6-0.2-1.2,0-1.8c0,0,0,0,0,0c4.3-9.8,7.4-20.2,9.2-30.7c0,0,0,0,0,0c0,0,0,0,0,0l2.5-15.6c0,0,0,0,0,0c0,0,0,0,0,0l0,0
	c0,0,0,0,0,0c1.5-10.6,1.8-21.4,0.8-32c-0.1-1.3,0.8-2.4,2.1-2.5c1.3-0.1,2.4,0.8,2.5,2.1l0,0v0c1,10.6,0.7,21.3-0.7,31.9
	c0,0,0,0,0,0c0,0,0,0,0,0c0,0,0,0.1,0,0.1c0,0.1,0,0.1,0,0.2c0,0.1,0,0.1,0,0.2c0,0.1,0,0.1,0,0.2c0,0.1,0,0.1,0.1,0.2
	c0,0.1,0,0.1,0.1,0.2c0,0.1,0.1,0.1,0.1,0.2c0,0,0.1,0.1,0.1,0.1c0,0,0.1,0.1,0.1,0.1c0,0,0.1,0.1,0.1,0.1c0,0,0.1,0.1,0.2,0.1
	c0,0,0.1,0.1,0.1,0.1c0.1,0,0.1,0.1,0.2,0.1c0,0,0.1,0,0.1,0.1c0.1,0,0.1,0,0.2,0c0,0,0.1,0,0.1,0c0,0,0,0,0,0c0,0,0,0,0,0
	C42,40.4,50,44.1,56.1,49.8c10.3,9.7,18.5,21.8,23.6,34.9C80,85.4,80,86.3,79.7,87z M32.2,58.8c2.3,0.3,4.6,1,6.7,2.1
	c-3,3.7-6.2,7.2-9.8,10.4C30.3,67.2,31.3,63,32.2,58.8z"/>
</svg>
